<svg width="362" height="107" viewBox="0 0 362 107" fill="none" xmlns="http://www.w3.org/2000/svg">
<path d="M33.0591 36.0032C31.9932 36.4922 31.31 37.5574 31.31 38.73C31.31 39.9026 31.9932 40.9678 33.0591 41.4568L49.9091 49.1868C50.7032 49.5511 51.6168 49.5511 52.4109 49.1868L69.2609 41.4568C70.3267 40.9678 71.01 39.9026 71.01 38.73C71.01 37.5574 70.3267 36.4922 69.2609 36.0032L52.4109 28.2732C51.6168 27.9089 50.7032 27.9089 49.9091 28.2732L33.0591 36.0032Z" fill="#308AFF" stroke="white" stroke-width="6" stroke-miterlimit="5.75877" stroke-linejoin="round"/>
<path d="M11.2491 26.0932C10.183 26.5823 9.49971 27.6478 9.5 28.8207C9.50029 29.9936 10.1841 31.0588 11.2504 31.5474L28.1004 39.2674C28.8938 39.6309 29.8062 39.6309 30.5996 39.2674L47.4496 31.5474C48.5159 31.0588 49.1997 29.9936 49.2 28.8207C49.2003 27.6478 48.517 26.5823 47.4509 26.0932L30.6009 18.3632C29.8068 17.9989 28.8932 17.9989 28.0991 18.3632L11.2491 26.0932Z" fill="#308AFF" stroke="white" stroke-width="6" stroke-miterlimit="5.75877" stroke-linejoin="round"/>
<path d="M54.8691 26.0932C53.803 26.5823 53.1197 27.6478 53.12 28.8207C53.1203 29.9936 53.8041 31.0588 54.8704 31.5474L71.7204 39.2674C72.514 39.631 73.4267 39.6309 74.2202 39.2671L91.0602 31.5471C92.1262 31.0584 92.8097 29.9934 92.81 28.8207C92.8103 27.6481 92.1273 26.5827 91.0615 26.0935L74.2215 18.3635C73.4272 17.9989 72.5135 17.9988 71.7191 18.3632L54.8691 26.0932Z" fill="#308AFF" stroke="white" stroke-width="6" stroke-miterlimit="5.75877" stroke-linejoin="round"/>
<path d="M33.0591 16.1832C31.993 16.6723 31.3097 17.7378 31.31 18.9107C31.3103 20.0837 31.9941 21.1488 33.0604 21.6374L49.9104 29.3574C50.7038 29.7209 51.6162 29.7209 52.4096 29.3574L69.2596 21.6374C70.3259 21.1488 71.0097 20.0837 71.01 18.9107C71.0103 17.7378 70.327 16.6723 69.2609 16.1832L52.4109 8.45324C51.6168 8.08892 50.7032 8.08892 49.9091 8.45324L33.0591 16.1832Z" fill="#308AFF" stroke="white" stroke-width="6" stroke-miterlimit="5.75877" stroke-linejoin="round"/>
<path d="M28.64 63.43C28.64 64.5938 29.3131 65.6526 30.3669 66.1465L47.6069 74.2265C48.5361 74.6619 49.6234 74.5923 50.4894 74.0417C51.3555 73.4912 51.88 72.5362 51.88 71.51V50.63C51.88 49.4662 51.2069 48.4074 50.1531 47.9135L32.9131 39.8335C31.9839 39.398 30.8966 39.4677 30.0306 40.0183C29.1645 40.5688 28.64 41.5238 28.64 42.55V63.43Z" fill="#308AFF" stroke="white" stroke-width="6" stroke-miterlimit="5.75877" stroke-linejoin="round"/>
<path d="M52.2759 47.9187C51.2281 48.415 50.56 49.4706 50.56 50.63V71.5C50.56 72.5281 51.0865 73.4846 51.9551 74.0346C52.8237 74.5846 53.9135 74.6515 54.8428 74.2119L71.9028 66.1419C72.9513 65.6459 73.62 64.5899 73.62 63.43V42.55C73.62 41.5216 73.0933 40.5649 72.2243 40.015C71.3553 39.4651 70.2653 39.3985 69.3359 39.8387L52.2759 47.9187Z" fill="#308AFF" stroke="white" stroke-width="6" stroke-miterlimit="5.75877" stroke-linejoin="round"/>
<path d="M73.2837 38.0757C72.2208 38.5659 71.54 39.6295 71.54 40.8V61.68C71.54 62.7032 72.0614 63.6558 72.9233 64.2071C73.7852 64.7585 74.8687 64.8326 75.7976 64.4037L93.2976 56.3237C94.3598 55.8332 95.04 54.77 95.04 53.6V32.73C95.04 31.7071 94.5188 30.7547 93.6573 30.2033C92.7957 29.6518 91.7126 29.5774 90.7837 30.0057L73.2837 38.0757Z" fill="#308AFF" stroke="white" stroke-width="6" stroke-miterlimit="5.75877" stroke-linejoin="round"/>
<path d="M28.64 88.74C28.64 89.9038 29.3131 90.9626 30.3669 91.4564L47.6069 99.5365C48.5361 99.972 49.6234 99.9023 50.4894 99.3517C51.3555 98.8012 51.88 97.8462 51.88 96.82V75.94C51.88 74.7757 51.2063 73.7165 50.1518 73.2229L32.9118 65.1529C31.9827 64.718 30.8956 64.788 30.03 65.3386C29.1643 65.8892 28.64 66.8441 28.64 67.87V88.74Z" fill="#308AFF" stroke="white" stroke-width="6" stroke-miterlimit="5.75877" stroke-linejoin="round"/>
<path d="M7.23 53.6C7.23 54.7714 7.91182 55.8357 8.97598 56.3253L26.536 64.4053C27.4648 64.8327 28.5474 64.7576 29.4083 64.2061C30.2693 63.6545 30.79 62.7025 30.79 61.68V40.8C30.79 39.6281 30.1076 38.5635 29.0427 38.0741L11.4827 30.0041C10.5539 29.5772 9.47168 29.6527 8.61109 30.2043C7.75049 30.7559 7.23 31.7078 7.23 32.73V53.6Z" fill="#308AFF" stroke="white" stroke-width="6" stroke-miterlimit="5.75877" stroke-linejoin="round"/>
<path d="M7.23 78.73C7.23 79.9014 7.91182 80.9657 8.97598 81.4553L26.536 89.5353C27.4648 89.9627 28.5474 89.8876 29.4083 89.3361C30.2693 88.7845 30.79 87.8325 30.79 86.81V65.93C30.79 64.7581 30.1076 63.6935 29.0427 63.2041L11.4827 55.1341C10.5539 54.7072 9.47168 54.7827 8.61109 55.3343C7.75049 55.8859 7.23 56.8378 7.23 57.86V78.73Z" fill="#308AFF" stroke="white" stroke-width="6" stroke-miterlimit="5.75877" stroke-linejoin="round"/>
<path d="M52.2772 73.2281C51.2287 73.7241 50.56 74.7801 50.56 75.94V96.82C50.56 97.8484 51.0867 98.8051 51.9557 99.355C52.8246 99.9049 53.9147 99.9715 54.8441 99.5313L71.9041 91.4513C72.9519 90.955 73.62 89.8994 73.62 88.74V67.87C73.62 66.8419 73.0935 65.8854 72.2249 65.3354C71.3563 64.7854 70.2665 64.7185 69.3372 65.1581L52.2772 73.2281Z" fill="#308AFF" stroke="white" stroke-width="6" stroke-miterlimit="5.75877" stroke-linejoin="round"/>
<path d="M34.31 38.73L51.16 31L68.01 38.73L51.16 46.46L34.31 38.73Z" fill="#308AFF"/>
<path d="M12.5 28.82L29.35 21.09L46.2 28.82L29.35 36.54L12.5 28.82Z" fill="#308AFF"/>
<path d="M56.12 28.82L72.97 21.09L89.81 28.82L72.97 36.54L56.12 28.82Z" fill="#308AFF"/>
<path d="M34.31 18.91L51.16 11.18L68.01 18.91L51.16 26.63L34.31 18.91Z" fill="#308AFF"/>
<path d="M31.64 63.43V42.55L48.88 50.63V71.51L31.64 63.43Z" fill="#308AFF"/>
<path d="M53.56 50.63L70.62 42.55V63.43L53.56 71.5V50.63Z" fill="#308AFF"/>
<path d="M74.54 40.8L92.04 32.73V53.6L74.54 61.68V40.8Z" fill="#308AFF"/>
<path d="M31.64 88.74V67.87L48.88 75.94V96.82L31.64 88.74Z" fill="#308AFF"/>
<path d="M10.23 53.6V32.73L27.79 40.8V61.68L10.23 53.6Z" fill="#308AFF"/>
<path d="M10.23 78.73V57.86L27.79 65.93V86.81L10.23 78.73Z" fill="#308AFF"/>
<path d="M53.56 75.94L70.62 67.87V88.74L53.56 96.82V75.94Z" fill="#308AFF"/>
<path d="M118.27 33.3C116.613 33.3 115.27 34.6431 115.27 36.3V74.05C115.27 75.7069 116.613 77.05 118.27 77.05H124.64C126.297 77.05 127.64 75.7069 127.64 74.05V36.3C127.64 34.6431 126.297 33.3 124.64 33.3H118.27Z" fill="#231F20" stroke="white" stroke-width="6" stroke-miterlimit="2.49932" stroke-linejoin="round"/>
<path d="M163.41 33.3C161.753 33.3 160.41 34.6431 160.41 36.3V55.7446L143.858 34.4585C143.29 33.7275 142.416 33.3 141.49 33.3H135.12C133.463 33.3 132.12 34.6431 132.12 36.3V74.05C132.12 75.7069 133.463 77.05 135.12 77.05H141.49C143.147 77.05 144.49 75.7069 144.49 74.05V55.2665L160.5 75.8897C161.069 76.6217 161.943 77.05 162.87 77.05H169.79C171.447 77.05 172.79 75.7069 172.79 74.05V36.3C172.79 34.6431 171.447 33.3 169.79 33.3H163.41Z" fill="#231F20" stroke="white" stroke-width="6" stroke-miterlimit="2.49932" stroke-linejoin="round"/>
<path d="M194.52 77.05C196.177 77.05 197.52 75.7069 197.52 74.05V45.13H206C207.657 45.13 209 43.7869 209 42.13V36.3C209 34.6431 207.657 33.3 206 33.3H176.7C175.043 33.3 173.7 34.6431 173.7 36.3V42.13C173.7 43.7869 175.043 45.13 176.7 45.13H185.15V74.05C185.15 75.7069 186.493 77.05 188.15 77.05H194.52Z" fill="#231F20" stroke="white" stroke-width="6" stroke-miterlimit="2.49932" stroke-linejoin="round"/>
<path d="M242.39 36.3C242.39 34.6431 241.047 33.3 239.39 33.3H212.88C211.223 33.3 209.88 34.6431 209.88 36.3V74.05C209.88 75.7069 211.223 77.05 212.88 77.05H240C241.657 77.05 243 75.7069 243 74.05V68.05C243 66.3931 241.657 65.05 240 65.05H222.25V61H237.34C238.997 61 240.34 59.6569 240.34 58V52.3C240.34 50.6431 238.997 49.3 237.34 49.3H222.25V45.3H239.39C241.047 45.3 242.39 43.9569 242.39 42.3V36.3Z" fill="#231F20" stroke="white" stroke-width="6" stroke-miterlimit="2.49932" stroke-linejoin="round"/>
<path d="M243.2 42.13C243.2 43.7869 244.543 45.13 246.2 45.13H261.283L243.17 67.2282C242.73 67.7645 242.49 68.4366 242.49 69.13V74.05C242.49 75.7069 243.833 77.05 245.49 77.05H276.65C278.307 77.05 279.65 75.7069 279.65 74.05V68.16C279.65 66.5031 278.307 65.16 276.65 65.16H260.615L278.648 43.2041C279.089 42.6674 279.33 41.9945 279.33 41.3V36.3C279.33 34.6431 277.987 33.3 276.33 33.3H246.2C244.543 33.3 243.2 34.6431 243.2 36.3V42.13Z" fill="#231F20" stroke="white" stroke-width="6" stroke-miterlimit="2.49932" stroke-linejoin="round"/>
<path d="M314.16 36.3C314.16 34.6431 312.817 33.3 311.16 33.3H284.64C282.983 33.3 281.64 34.6431 281.64 36.3V74.05C281.64 75.7069 282.983 77.05 284.64 77.05H311.8C313.457 77.05 314.8 75.7069 314.8 74.05V68.05C314.8 66.3931 313.457 65.05 311.8 65.05H294V61H309.1C310.757 61 312.1 59.6569 312.1 58V52.3C312.1 50.6431 310.757 49.3 309.1 49.3H294V45.3H311.16C312.817 45.3 314.16 43.9569 314.16 42.3V36.3Z" fill="#231F20" stroke="white" stroke-width="6" stroke-miterlimit="2.49932" stroke-linejoin="round"/>
<path d="M353.09 48.56L353.09 48.5553C353.082 43.707 351.653 39.5608 348.212 36.8602C344.918 34.2743 339.944 33.3 334 33.3H320C318.343 33.3 317 34.6431 317 36.3V74.05C317 75.7069 318.343 77.05 320 77.05H326.35C328.007 77.05 329.35 75.7069 329.35 74.05V64.36H333.17L341.273 75.7855C341.835 76.5787 342.748 77.05 343.72 77.05H351.82C352.946 77.05 353.977 76.4197 354.49 75.4176C355.003 74.4156 354.912 73.2105 354.254 72.2969L346.539 61.5821C348.117 60.6334 349.462 59.4073 350.519 57.8803C352.317 55.2841 353.09 52.0992 353.09 48.56ZM334.27 52.58H329.33V45.08H334.43C337.775 45.08 339.342 45.5775 339.866 45.9359C340.013 46.0362 340.56 46.5135 340.56 48.53L340.56 48.5705C340.587 50.5287 340.072 51.2841 339.68 51.6129L339.653 51.6364C339.511 51.7588 339.093 52.0202 338.139 52.2373C337.206 52.4496 335.934 52.58 334.27 52.58Z" fill="#231F20" stroke="white" stroke-width="6" stroke-miterlimit="2.49932" stroke-linejoin="round"/>
</svg>
