<svg id="Layer_1" data-name="Layer 1" xmlns="http://www.w3.org/2000/svg" viewBox="0 0 345 86"><defs><style>.cls-1{fill:#fff;}</style></defs><polygon class="cls-1" points="24.31 27.73 41.16 20 58.01 27.73 41.16 35.46 24.31 27.73"/><polygon class="cls-1" points="2.5 17.82 19.35 10.09 36.2 17.82 19.35 25.54 2.5 17.82"/><polygon class="cls-1" points="46.12 17.82 62.97 10.09 79.81 17.82 62.97 25.54 46.12 17.82"/><polygon class="cls-1" points="24.31 7.91 41.16 0.18 58.01 7.91 41.16 15.63 24.31 7.91"/><polygon class="cls-1" points="21.64 52.43 21.64 31.55 38.88 39.63 38.88 60.51 21.64 52.43"/><polygon class="cls-1" points="43.56 39.63 60.62 31.55 60.62 52.43 43.56 60.5 43.56 39.63"/><polygon class="cls-1" points="64.54 29.8 82.04 21.73 82.04 42.6 64.54 50.68 64.54 29.8"/><polygon class="cls-1" points="21.64 77.74 21.64 56.87 38.88 64.94 38.88 85.82 21.64 77.74"/><polygon class="cls-1" points="0.23 42.6 0.23 21.73 17.79 29.8 17.79 50.68 0.23 42.6"/><polygon class="cls-1" points="0.23 67.73 0.23 46.86 17.79 54.93 17.79 75.81 0.23 67.73"/><polygon class="cls-1" points="43.56 64.94 60.62 56.87 60.62 77.74 43.56 85.82 43.56 64.94"/><path class="cls-1" d="M108.27,25.3h6.37V63.05h-6.37Z"/><path class="cls-1" d="M153.41,25.3h6.37V63.05h-6.91L131.49,35.51V63.05h-6.37V25.3h6.37l21.92,28.19Z"/><path class="cls-1" d="M184.52,31.13V63.05h-6.37V31.13H166.7V25.3H196v5.83Z"/><path class="cls-1" d="M229.39,25.3v6H209.25v10h18.09V47H209.25V57.05H230v6H202.88V25.3Z"/><path class="cls-1" d="M257.47,31.13H236.2V25.3h30.13v5L244.4,57v.16h22.25v5.89H235.49V58.13l22-26.84Z"/><path class="cls-1" d="M301.16,25.3v6H281v10H299.1V47H281V57.05H301.8v6H274.64V25.3Z"/><path class="cls-1" d="M340.09,37.56q0,9.34-8.15,11.77l9.88,13.72h-8.1l-9-12.69h-8.37V63.05H310V25.3h14q8.64,0,12.36,2.92T340.09,37.56Zm-8.48,5.35c1.3-1.12,1.94-2.91,1.94-5.38s-.66-4.16-2-5.07-3.71-1.38-7.13-1.38h-8.1v13.5h7.94Q329.67,44.58,331.61,42.91Z"/></svg>